<svg width="26" height="20" viewBox="0 0 26 20" fill="none" xmlns="http://www.w3.org/2000/svg">
<path d="M0.129791 2.22222C0.129791 1.62037 0.28931 1.09954 0.608346 0.659721C0.927383 0.219906 1.30519 -9.53674e-07 1.74177 -9.53674e-07L24.3094 -9.53674e-07C24.746 -9.53674e-07 25.1238 0.219906 25.4428 0.659721C25.7619 1.09954 25.9214 1.62037 25.9214 2.22222C25.9214 2.82407 25.7619 3.34491 25.4428 3.78472L14.159 19.3403C13.84 19.7801 13.4622 20 13.0256 20C12.589 20 12.2112 19.7801 11.8922 19.3403L0.608346 3.78472C0.28931 3.34491 0.129791 2.82407 0.129791 2.22222Z" fill="#2C2C2C"/>
</svg>
